<svg>
  <symbol id="search" width="16" height="17" viewBox="0 0 16 17" fill="none" xmlns="http://www.w3.org/2000/svg">
    <path d="M7.22221 0.75C3.65324 0.75 0.75 3.65323 0.75 7.22222C0.75 10.7912 3.65327 13.6944 7.22221 13.6944C10.7911 13.6944 13.6944 10.7912 13.6944 7.22222C13.6944 3.65323 10.7912 0.75 7.22221 0.75ZM7.22221 12.1716C4.49165 12.1716 2.27004 9.95083 2.27004 7.2222C2.27004 4.4934 4.49164 2.2728 7.22221 2.2728C9.95278 2.2728 12.1744 4.4934 12.1744 7.2222C12.1744 9.95083 9.9528 12.1716 7.22221 12.1716Z" fill="#F2F2F2" stroke="#F2F2F2" stroke-width="0.5"/>
    <path d="M15.043 14.8221L15.0429 14.8221L12.0619 11.8446L12.0618 11.8445C11.786 11.5693 11.34 11.5706 11.0657 11.8471L11.0655 11.8473C10.7919 12.1236 10.7931 12.5697 11.0681 12.8445L11.0681 12.8446L14.0492 15.8221L14.0493 15.8222C14.1865 15.959 14.3663 16.0278 14.546 16.0278C14.7268 16.0278 14.9081 15.9581 15.0455 15.8195L15.0456 15.8194C15.3191 15.5431 15.3179 15.097 15.043 14.8221Z" fill="#F2F2F2" stroke="#F2F2F2" stroke-width="0.5"/>
  </symbol>

  <symbol id="user" width="25" height="25" viewBox="0 0 25 25" fill="none" xmlns="http://www.w3.org/2000/svg">
    <path d="M12.5 0C9.18593 0.00370554 6.00866 1.32186 3.66526 3.66526C1.32186 6.00866 0.00370554 9.18593 0 12.5C0.0055527 15.8135 1.3243 18.9897 3.6673 21.3327C6.0103 23.6757 9.1865 24.9944 12.5 25C15.8152 25 18.9946 23.683 21.3388 21.3388C23.683 18.9946 25 15.8152 25 12.5C25 9.18479 23.683 6.00537 21.3388 3.66117C18.9946 1.31696 15.8152 0 12.5 0ZM20.103 19.713C19.401 18.297 18.3172 17.1054 16.974 16.2726C15.6307 15.4397 14.0815 14.9989 12.501 14.9997C10.9206 15.0005 9.37177 15.443 8.02941 16.2773C6.68705 17.1115 5.60453 18.3043 4.904 19.721C3.03491 17.7825 1.99344 15.1928 2 12.5C2 9.71523 3.10625 7.04451 5.07538 5.07538C7.04451 3.10625 9.71523 2 12.5 2C15.2848 2 17.9555 3.10625 19.9246 5.07538C21.8938 7.04451 23 9.71523 23 12.5C23.0063 15.189 21.9675 17.7753 20.103 19.713ZM12.5 5C11.61 5 10.74 5.26392 9.99993 5.75839C9.25991 6.25285 8.68314 6.95566 8.34254 7.77792C8.00195 8.60019 7.91283 9.50499 8.08647 10.3779C8.2601 11.2508 8.68868 12.0526 9.31802 12.682C9.94736 13.3113 10.7492 13.7399 11.6221 13.9135C12.495 14.0872 13.3998 13.9981 14.2221 13.6575C15.0443 13.3169 15.7471 12.7401 16.2416 12.0001C16.7361 11.26 17 10.39 17 9.5C17 8.90905 16.8836 8.32389 16.6575 7.77792C16.4313 7.23196 16.0998 6.73588 15.682 6.31802C15.2641 5.90016 14.768 5.56869 14.2221 5.34254C13.6761 5.1164 13.0909 5 12.5 5Z" fill="white"/>
  </symbol>

  <symbol id="logout" width="24" height="30" viewBox="0 0 24 30" fill="none" xmlns="http://www.w3.org/2000/svg">
    <path fill-rule="evenodd" clip-rule="evenodd" d="M7 2H21C21.5523 2 22 2.44771 22 3V27C22 27.5523 21.5523 28 21 28H7C6.44772 28 6 27.5523 6 27V20C6 19.4477 5.55228 19 5 19V19C4.44772 19 4 19.4477 4 20V27C4 28.6569 5.34315 30 7 30H21C22.6569 30 24 28.6569 24 27V3C24 1.34315 22.6569 0 21 0H7C5.34315 0 4 1.34315 4 3V9C4 9.55228 4.44772 10 5 10V10C5.55228 10 6 9.55228 6 9V3C6 2.44772 6.44772 2 7 2Z" fill="white"/>
    <path d="M1 13.5C0.447715 13.5 0 13.9477 0 14.5C0 15.0523 0.447715 15.5 1 15.5V13.5ZM17.7071 15.2071C18.0976 14.8166 18.0976 14.1834 17.7071 13.7929L11.3431 7.42893C10.9526 7.03841 10.3195 7.03841 9.92893 7.42893C9.53841 7.81946 9.53841 8.45262 9.92893 8.84315L15.5858 14.5L9.92893 20.1569C9.53841 20.5474 9.53841 21.1805 9.92893 21.5711C10.3195 21.9616 10.9526 21.9616 11.3431 21.5711L17.7071 15.2071ZM1 15.5H17V13.5H1V15.5Z" fill="white"/>
  </symbol>

  <symbol id="eye" width="24" height="24" viewBox="0 0 24 24" fill="none" xmlns="http://www.w3.org/2000/svg">
    <path d="M15.5799 12C15.5799 13.98 13.9799 15.58 11.9999 15.58C10.0199 15.58 8.41992 13.98 8.41992 12C8.41992 10.02 10.0199 8.42001 11.9999 8.42001C13.9799 8.42001 15.5799 10.02 15.5799 12Z" stroke="#8C8C8C" stroke-width="1.5" stroke-linecap="round" stroke-linejoin="round"/>
    <path d="M11.9998 20.27C15.5298 20.27 18.8198 18.19 21.1098 14.59C22.0098 13.18 22.0098 10.81 21.1098 9.4C18.8198 5.8 15.5298 3.72 11.9998 3.72C8.46984 3.72 5.17984 5.8 2.88984 9.4C1.98984 10.81 1.98984 13.18 2.88984 14.59C5.17984 18.19 8.46984 20.27 11.9998 20.27Z" stroke="#8C8C8C" stroke-width="1.5" stroke-linecap="round" stroke-linejoin="round"/>
  </symbol>

  <symbol id="eye-close" width="24" height="24" viewBox="0 0 24 24" fill="none" xmlns="http://www.w3.org/2000/svg">
    <path d="M14.53 9.46999L9.47002 14.53C8.79902 13.859 8.42206 12.9489 8.42206 12C8.42206 11.5301 8.5146 11.0649 8.69441 10.6308C8.87422 10.1967 9.13777 9.80223 9.47002 9.46999C9.80226 9.13774 10.1967 8.87419 10.6308 8.69438C11.0649 8.51457 11.5302 8.42203 12 8.42203C12.949 8.42203 13.859 8.79899 14.53 9.46999Z" stroke="#8C8C8C" stroke-width="1.5" stroke-linecap="round" stroke-linejoin="round"/>
    <path d="M17.82 5.76998C16.07 4.44998 14.07 3.72998 12 3.72998C8.47003 3.72998 5.18003 5.80998 2.89003 9.40998C1.99003 10.82 1.99003 13.19 2.89003 14.6C3.68003 15.84 4.60003 16.91 5.60003 17.77M8.42003 19.53C9.56003 20.01 10.77 20.27 12 20.27C15.53 20.27 18.82 18.19 21.11 14.59C22.01 13.18 22.01 10.81 21.11 9.39998C20.78 8.87998 20.42 8.38998 20.05 7.92998" stroke="#8C8C8C" stroke-width="1.5" stroke-linecap="round" stroke-linejoin="round"/>
    <path d="M15.51 12.7C15.3745 13.3976 15.0337 14.0387 14.5312 14.5412C14.0287 15.0437 13.3876 15.3845 12.69 15.52M9.47 14.53L2 22M22 2L14.53 9.47" stroke="#8C8C8C" stroke-width="1.5" stroke-linecap="round" stroke-linejoin="round"/>
  </symbol>

  <symbol id="arrow-light" width="24" height="24" viewBox="0 0 24 24" fill="none" xmlns="http://www.w3.org/2000/svg">
    <path d="M15 4L7 12L15 20" stroke="#222222" stroke-width="1.5" stroke-linecap="round" stroke-linejoin="round"/>
  </symbol>
</svg>
